<svg width="337" height="327" viewBox="0 0 337 327" fill="none" xmlns="http://www.w3.org/2000/svg">
<g clip-path="url(#clip0_9_240)">
<path d="M316.548 90.2532C313.398 84.5707 309.903 79.0863 306.083 73.8308C303.406 70.1437 300.578 66.5796 297.598 63.1386H297.59C292.198 56.9093 286.334 51.1048 280.05 45.7767C278.763 44.6844 277.46 43.6144 276.139 42.5668C264.215 33.0807 250.992 25.3542 236.874 19.6234L236.999 40.254L238.35 275.432H121.258L114.672 40.6977L115.163 20.3966C57.7563 44.5406 17.4483 101.307 17.4483 167.492C17.4376 181.153 19.1805 194.759 22.6341 207.976C24.0929 213.563 25.859 219.066 27.9243 224.458C28.67 226.415 29.4566 228.355 30.2842 230.278C30.6831 231.213 31.0895 232.142 31.5108 233.066C32.0513 234.274 32.6143 235.478 33.1921 236.668C33.6395 237.603 34.0993 238.533 34.5716 239.456C35.1792 240.668 35.8068 241.87 36.4543 243.061C36.9538 243.997 37.4683 244.925 37.9903 245.85C46.4108 260.744 57.1635 274.193 69.8396 285.685C73.4521 288.962 77.2113 292.069 81.1171 295.005C108.753 315.772 142.387 327 176.956 327C211.525 327 245.159 315.772 272.795 295.005C274.92 293.41 277.001 291.761 279.039 290.058C280.393 288.932 281.724 287.785 283.032 286.617C283.379 286.308 283.726 285.998 284.069 285.685C295.755 275.091 305.813 262.828 313.916 249.295C316.892 244.333 319.59 239.21 321.998 233.95C322.636 232.563 323.254 231.164 323.851 229.752C326.603 223.279 328.917 216.63 330.778 209.848C331.065 208.8 331.342 207.749 331.61 206.694V206.69C331.654 206.507 331.703 206.321 331.747 206.138C332.023 205.027 332.288 203.909 332.542 202.79V202.787C333.362 199.181 334.054 195.533 334.618 191.841C334.689 191.367 334.76 190.894 334.827 190.42C334.853 190.249 334.879 190.077 334.898 189.906V189.902C335.3 187.05 335.627 184.177 335.878 181.283C336.266 176.738 336.461 172.141 336.464 167.492C336.506 140.471 329.651 113.885 316.548 90.2532Z" fill="#F2F2F2"/>
<path d="M300.883 263.778C310.324 251.022 313.955 233.053 306.611 218.984C299.724 234.809 287.461 247.687 271.992 255.341C266.016 258.271 259.064 260.907 256.297 266.961C254.576 270.728 254.904 275.176 256.287 279.079C257.671 282.983 260.025 286.456 262.353 289.881L262.476 290.908C277.136 284.829 291.442 276.535 300.883 263.778Z" fill="#E6E6E6"/>
<path d="M306.298 219.097C305.875 232.227 301.325 244.889 293.296 255.285C291.608 257.554 289.572 259.543 287.264 261.178C284.964 262.698 282.299 263.574 279.546 263.716C276.982 263.899 274.338 263.79 271.863 264.594C270.602 265.025 269.447 265.717 268.472 266.625C267.498 267.533 266.726 268.637 266.208 269.864C264.838 272.889 264.636 276.225 264.552 279.495C264.459 283.125 264.42 286.898 262.707 290.198C262.5 290.598 263.132 290.896 263.34 290.497C266.319 284.755 264.384 278.041 266.16 272.005C266.988 269.188 268.67 266.605 271.482 265.476C273.941 264.489 276.668 264.599 279.266 264.435C281.953 264.337 284.576 263.581 286.904 262.235C289.288 260.723 291.397 258.816 293.141 256.596C297.147 251.662 300.352 246.128 302.639 240.198C305.287 233.444 306.76 226.287 306.995 219.036C307.009 218.588 306.312 218.651 306.298 219.097Z" fill="white"/>
<path d="M296.079 252.09C298.006 253.2 300.265 253.589 302.453 253.188C304.64 252.786 306.614 251.62 308.021 249.898C308.305 249.548 307.775 249.091 307.491 249.441C306.184 251.047 304.345 252.133 302.307 252.503C300.269 252.873 298.166 252.502 296.378 251.458C295.989 251.231 295.692 251.865 296.079 252.09Z" fill="white"/>
<path d="M280.859 263.794C279.639 259.414 280.114 254.735 282.191 250.69C282.397 250.29 281.764 249.991 281.559 250.391C279.406 254.604 278.92 259.474 280.2 264.029C280.322 264.463 280.98 264.225 280.859 263.794Z" fill="white"/>
<path d="M304.361 233.476C303.526 233.202 302.772 232.725 302.166 232.087C301.561 231.449 301.124 230.671 300.894 229.823C300.777 229.387 300.119 229.626 300.235 230.058C300.494 230.995 300.978 231.853 301.645 232.559C302.312 233.265 303.142 233.797 304.062 234.108C304.146 234.145 304.241 234.148 304.327 234.117C304.414 234.086 304.485 234.024 304.527 233.942C304.567 233.858 304.571 233.762 304.54 233.675C304.509 233.588 304.444 233.516 304.361 233.476Z" fill="white"/>
<path d="M254.057 207.788C254.122 208.062 254.187 208.336 254.248 208.614C255.105 212.302 255.661 216.053 255.91 219.831C255.934 220.123 255.954 220.419 255.969 220.71C256.472 229.818 255.28 238.94 252.454 247.612C251.326 251.062 249.937 254.421 248.299 257.66C246.038 262.134 243.229 266.804 242.596 271.621C242.524 272.123 242.484 272.629 242.475 273.136L261.214 290.977C261.277 290.997 261.336 291.02 261.399 291.04L262.115 291.786C262.211 291.625 262.307 291.456 262.403 291.295C262.46 291.201 262.511 291.104 262.568 291.011C262.604 290.947 262.64 290.884 262.676 290.829C262.688 290.808 262.7 290.786 262.708 290.77C262.744 290.714 262.772 290.659 262.804 290.608C263.345 289.664 263.879 288.714 264.409 287.759C264.413 287.755 264.413 287.755 264.413 287.746C268.426 280.457 271.866 272.769 274.029 264.804C274.094 264.564 274.164 264.32 274.22 264.072C275.175 260.476 275.835 256.808 276.193 253.105C276.382 251.076 276.469 249.039 276.452 247.002C276.399 241.738 275.519 236.515 273.843 231.525C270.5 221.577 264.014 212.809 254.767 208.138C254.53 208.019 254.297 207.903 254.057 207.788Z" fill="#E6E6E6"/>
<path d="M253.872 208.066C261.439 218.804 265.431 231.653 265.279 244.788C265.297 247.616 264.869 250.43 264.01 253.125C263.089 255.723 261.489 258.027 259.376 259.798C257.44 261.488 255.263 262.993 253.771 265.125C253.023 266.228 252.517 267.476 252.286 268.788C252.054 270.1 252.103 271.446 252.428 272.738C253.155 275.977 255.003 278.763 256.904 281.424C259.016 284.379 261.256 287.414 261.875 291.08C261.95 291.524 262.635 291.382 262.56 290.939C261.482 284.56 255.895 280.364 253.679 274.476C252.644 271.728 252.432 268.652 253.997 266.058C255.366 263.79 257.61 262.236 259.586 260.541C261.672 258.844 263.311 256.662 264.36 254.185C265.353 251.543 265.889 248.751 265.945 245.928C266.172 239.576 265.4 233.228 263.655 227.116C261.703 220.129 258.57 213.528 254.392 207.598C254.133 207.231 253.615 207.702 253.872 208.066Z" fill="white"/>
<path d="M265.577 240.561C267.784 240.288 269.822 239.238 271.327 237.6C272.832 235.963 273.706 233.843 273.793 231.621C273.809 231.171 273.11 231.125 273.094 231.576C273.018 233.645 272.204 235.619 270.799 237.142C269.395 238.664 267.492 239.634 265.435 239.877C264.988 239.93 265.133 240.614 265.577 240.561Z" fill="white"/>
<path d="M260.471 259.07C256.86 256.307 254.423 252.285 253.646 247.805C253.569 247.361 252.884 247.504 252.961 247.947C253.778 252.607 256.323 256.788 260.087 259.654C260.446 259.927 260.828 259.341 260.471 259.07Z" fill="white"/>
<path d="M260.983 220.713C260.151 220.997 259.261 221.07 258.394 220.925C257.527 220.78 256.71 220.422 256.015 219.884C255.66 219.606 255.278 220.193 255.631 220.468C256.401 221.06 257.305 221.454 258.262 221.616C259.22 221.778 260.203 221.703 261.125 221.398C261.214 221.377 261.292 221.322 261.342 221.245C261.393 221.168 261.412 221.075 261.396 220.985C261.377 220.894 261.323 220.815 261.245 220.764C261.168 220.713 261.074 220.695 260.983 220.713Z" fill="white"/>
<path d="M7.44642 192.331C-0.926755 178.85 -3.08541 160.645 5.37767 147.22C10.9564 163.552 22.1322 177.384 36.9278 186.27C42.6462 189.676 49.3611 192.868 51.6262 199.127C53.0357 203.021 52.3476 207.428 50.6513 211.206C48.9548 214.984 46.3268 218.255 43.7276 221.479L43.5219 222.492C29.4041 215.243 15.8196 205.813 7.44642 192.331Z" fill="#E6E6E6"/>
<path d="M5.6802 147.358C5.03484 160.478 8.53994 173.468 15.6976 184.483C17.1964 186.882 19.0639 189.029 21.2314 190.846C23.4 192.548 25.9848 193.638 28.7171 194.003C31.2579 194.395 33.9022 194.501 36.3036 195.503C37.5252 196.035 38.6207 196.818 39.5182 197.802C40.4157 198.787 41.095 199.95 41.5116 201.215C42.6315 204.341 42.5614 207.683 42.3793 210.949C42.1772 214.575 41.9097 218.338 43.3482 221.766C43.5225 222.181 42.8678 222.427 42.6937 222.013C40.191 216.048 42.6647 209.513 41.3857 203.353C40.7889 200.478 39.3222 197.766 36.6115 196.413C34.241 195.229 31.5143 195.117 28.9382 194.743C26.2675 194.426 23.7151 193.46 21.5039 191.929C19.2509 190.228 17.3037 188.157 15.7459 185.802C12.154 180.559 9.40907 174.783 7.6115 168.686C5.52135 161.739 4.63492 154.486 4.99054 147.241C5.01273 146.792 5.70226 146.913 5.6802 147.358Z" fill="white"/>
<path d="M13.1845 181.072C11.1734 182.022 8.89013 182.226 6.74239 181.648C4.59465 181.07 2.72231 179.748 1.45974 177.917C1.20555 177.545 1.77071 177.133 2.02524 177.505C3.19779 179.212 4.94201 180.444 6.94308 180.978C8.94416 181.512 11.0703 181.313 12.9377 180.418C13.3437 180.223 13.5882 180.879 13.1845 181.072Z" fill="white"/>
<path d="M27.4029 193.974C28.9748 189.708 28.881 185.006 27.1401 180.806C26.9673 180.39 27.622 180.143 27.7946 180.559C29.598 184.933 29.6857 189.826 28.0402 194.262C27.883 194.685 27.2466 194.395 27.4029 193.974Z" fill="white"/>
<path d="M6.44263 161.847C7.29736 161.642 8.08767 161.227 8.7426 160.641C9.39753 160.054 9.89657 159.314 10.1949 158.488C10.3466 158.063 10.9829 158.354 10.8322 158.776C10.4983 159.688 9.9462 160.504 9.22404 161.154C8.50188 161.803 7.63166 162.266 6.68942 162.501C6.60247 162.531 6.50749 162.527 6.42378 162.489C6.34008 162.451 6.27393 162.382 6.23878 162.298C6.20654 162.211 6.20987 162.115 6.24804 162.03C6.28621 161.946 6.35614 161.88 6.44263 161.847Z" fill="white"/>
<path d="M58.668 140.332C58.5808 140.6 58.4936 140.868 58.4099 141.14C57.2564 144.746 56.3977 148.439 55.8424 152.184C55.7948 152.473 55.751 152.767 55.7119 153.056C54.4701 162.093 54.9168 171.281 57.0292 180.155C57.8731 183.685 58.9843 187.146 60.3532 190.507C62.244 195.15 64.6635 200.033 64.9032 204.886C64.9339 205.392 64.9332 205.899 64.9012 206.405L44.7738 222.665C44.7095 222.679 44.6487 222.697 44.5842 222.711L43.8102 223.397C43.7275 223.229 43.6453 223.053 43.5626 222.884C43.5142 222.787 43.4703 222.685 43.4219 222.588C43.3911 222.522 43.3604 222.455 43.3289 222.397C43.3185 222.375 43.3084 222.353 43.3017 222.336C43.2701 222.278 43.2469 222.221 43.219 222.167C42.757 221.182 42.3011 220.192 41.8514 219.197C41.8477 219.192 41.8477 219.192 41.8485 219.184C38.4409 211.593 35.6372 203.651 34.128 195.536C34.0827 195.292 34.0334 195.043 33.9973 194.791C33.3373 191.13 32.9777 187.42 32.9221 183.7C32.8982 181.663 32.9775 179.625 33.1596 177.596C33.6402 172.354 34.9423 167.22 37.0183 162.382C41.1583 152.739 48.3362 144.527 57.9319 140.623C58.1774 140.523 58.4187 140.427 58.668 140.332Z" fill="#E6E6E6"/>
<path d="M58.8291 140.624C50.4145 150.711 45.3922 163.193 44.4756 176.298C44.2282 179.115 44.4264 181.954 45.0631 184.71C45.7699 187.374 47.1774 189.801 49.1393 191.737C50.9323 193.58 52.9796 195.256 54.2935 197.503C54.949 198.662 55.3519 199.948 55.4759 201.274C55.5998 202.6 55.442 203.938 55.0127 205.199C54.0249 208.369 51.9569 210.995 49.8454 213.493C47.5009 216.266 45.0218 219.11 44.1063 222.713C43.9954 223.15 43.3244 222.952 43.4351 222.516C45.028 216.247 50.9377 212.518 53.6253 206.83C54.8794 204.175 55.3411 201.127 53.9916 198.414C52.8115 196.042 50.7018 194.311 48.8702 192.461C46.9287 190.6 45.4724 188.292 44.6285 185.739C43.8537 183.024 43.5464 180.198 43.7198 177.38C44.0091 171.03 45.295 164.766 47.5303 158.816C50.0438 152.011 53.7028 145.686 58.3491 140.115C58.6368 139.77 59.115 140.282 58.8291 140.624Z" fill="white"/>
<path d="M44.5229 172.061C42.3452 171.608 40.3991 170.397 39.0323 168.642C37.6655 166.888 36.9668 164.704 37.0612 162.482C37.0659 162.391 37.1055 162.306 37.1718 162.244C37.2381 162.182 37.3258 162.149 37.4165 162.15C37.5072 162.152 37.5938 162.188 37.658 162.252C37.7222 162.316 37.759 162.403 37.7607 162.494C37.6691 164.563 38.32 166.596 39.5962 168.228C40.8723 169.859 42.6895 170.98 44.7199 171.389C45.161 171.479 44.9615 172.15 44.5229 172.061Z" fill="white"/>
<path d="M48.1076 190.923C51.9313 188.463 54.6873 184.652 55.8261 180.25C55.9386 179.814 56.6096 180.012 56.4973 180.447C55.3037 185.026 52.4276 188.985 48.4429 191.537C48.0629 191.78 47.7297 191.164 48.1076 190.923Z" fill="white"/>
<path d="M50.7142 152.652C51.5203 153.002 52.4009 153.147 53.2769 153.073C54.1528 152.999 54.9967 152.709 55.7328 152.228C56.1095 151.981 56.4423 152.596 56.068 152.842C55.2524 153.369 54.32 153.689 53.3524 153.773C52.3847 153.856 51.4113 153.702 50.5172 153.323C50.4299 153.294 50.3568 153.233 50.3128 153.153C50.2687 153.072 50.2571 152.978 50.2801 152.889C50.3066 152.8 50.3671 152.725 50.4484 152.681C50.5297 152.636 50.6252 152.626 50.7142 152.652Z" fill="white"/>
<path d="M162.879 54.7136C175.118 54.7136 185.04 44.792 185.04 32.553C185.04 20.314 175.118 10.3923 162.879 10.3923C150.64 10.3923 140.719 20.314 140.719 32.553C140.719 44.792 150.64 54.7136 162.879 54.7136Z" fill="#FF6584"/>
<path d="M230.73 31.3965C228.733 29.2871 226.625 27.2859 224.415 25.4017C220.098 21.7407 215.318 18.6277 209.991 16.6667C207.985 15.926 205.912 15.3804 203.802 15.0375C203.549 14.9965 203.299 14.9555 203.045 14.9219C203.027 14.9201 203.008 14.9201 202.989 14.9219C202.95 14.9109 202.91 14.9034 202.87 14.8996C202.352 14.8325 201.834 14.7803 201.312 14.743C198.501 14.5561 195.678 14.8103 192.946 15.4961C191.36 15.8961 189.813 16.435 188.323 17.1066C186.83 17.8377 185.382 18.6582 183.987 19.5635C183.238 20.0184 182.467 20.4352 181.676 20.8124C179.366 21.9066 176.921 22.6889 174.406 23.1387C172.707 23.4435 170.987 23.613 169.261 23.6458C167.762 23.6756 166.349 23.7278 164.929 24.2684C163.413 24.8379 162.051 25.7543 160.953 26.9441C159.854 28.1339 159.049 29.5642 158.602 31.1206C158.567 31.2589 158.577 31.4047 158.631 31.5369C158.684 31.6691 158.779 31.7806 158.901 31.8551C159.284 32.131 159.657 32.4441 160.064 32.6902C160.422 32.8538 160.805 32.9583 161.197 32.9996C161.838 33.1338 162.481 33.2643 163.124 33.3911C165.492 33.8608 167.869 34.2771 170.256 34.64C175.058 35.367 179.887 35.879 184.744 36.176C184.773 36.1803 184.803 36.1828 184.833 36.1834C190.32 36.5146 195.82 36.5681 201.312 36.3437C202.143 36.3102 202.971 36.2692 203.802 36.2207C207.265 36.0268 210.72 35.7211 214.166 35.3036C217.354 34.9159 220.529 34.4349 223.692 33.8608C225.951 33.4507 228.201 32.9934 230.443 32.4889C230.552 32.4566 230.651 32.3969 230.73 32.3154C230.809 32.2339 230.866 32.1334 230.894 32.0236C230.923 31.9137 230.923 31.7983 230.895 31.6885C230.866 31.5787 230.809 31.4781 230.73 31.3965Z" fill="#E6E6E6"/>
<path d="M184.669 60.9457C181.461 57.5137 177.926 54.4022 174.115 51.6552C172.851 50.7679 171.55 49.9328 170.212 49.1685C168.571 48.2213 166.867 47.388 165.112 46.6744C164.72 46.5141 164.325 46.3613 163.93 46.2159C161.685 45.3843 159.356 44.7993 156.984 44.4711C156.966 44.4674 156.947 44.4711 156.929 44.4674C156.891 44.4599 156.85 44.4525 156.813 44.445C155.663 44.2959 154.505 44.2249 153.346 44.2325C152.514 44.2325 151.679 44.2772 150.852 44.3592C149.514 44.491 148.189 44.7202 146.885 45.0452C146.24 45.2055 145.599 45.3919 144.969 45.6044C144.05 45.9069 143.148 46.2578 142.266 46.6558C142.251 46.6632 142.24 46.667 142.225 46.6744C140.745 47.3985 139.31 48.2128 137.93 49.1126C137.9 49.1312 137.867 49.1499 137.837 49.1685C136.269 50.1064 134.61 50.8834 132.886 51.4874C131.406 52.005 129.888 52.4064 128.345 52.6879C126.646 52.9934 124.926 53.1617 123.2 53.1912C121.702 53.221 120.289 53.2732 118.872 53.8175C117.355 54.387 115.993 55.3032 114.894 56.493C113.795 57.6827 112.989 59.1131 112.542 60.6698C112.507 60.808 112.517 60.9536 112.571 61.0856C112.624 61.2176 112.719 61.3292 112.84 61.4042C113.224 61.6801 113.6 61.9895 114.003 62.2356C114.361 62.4005 114.744 62.505 115.136 62.545C115.778 62.6792 116.419 62.8134 117.064 62.9402C119.431 63.4099 121.81 63.825 124.199 64.1854C127.476 64.6812 130.767 65.0777 134.071 65.3747C135.637 65.5201 137.204 65.6394 138.773 65.7326C142.795 65.9749 146.822 66.0693 150.852 66.0159C151.683 66.0047 152.514 65.9861 153.346 65.96C158.282 65.8146 163.203 65.4442 168.109 64.849C173.578 64.1874 179.009 63.2479 184.382 62.0343C184.491 62.0024 184.59 61.943 184.669 61.8619C184.748 61.7807 184.804 61.6805 184.833 61.571C184.862 61.4615 184.862 61.3464 184.834 61.2368C184.805 61.1272 184.748 61.027 184.669 60.9457Z" fill="#E6E6E6"/>
<path d="M129.432 1.47127L148.955 271.26L109.909 274.726V4.90374C114.562 1.2694 121.241 0.700795 129.432 1.47127Z" fill="#CCCCCC"/>
<path d="M225.801 1.47127L206.278 271.26L245.324 274.726V4.90374C240.671 1.2694 233.992 0.700796 225.801 1.47127Z" fill="#CCCCCC"/>
<path d="M246.243 5.02152C245.032 2.05085 242.455 0 239.477 0H115.341C111.2 0 107.833 3.97408 107.833 8.86357V277.012C107.797 279.492 108.724 281.89 110.42 283.701C111.308 284.633 112.431 285.307 113.671 285.651C114.215 285.801 114.777 285.877 115.341 285.875H239.477C240.041 285.877 240.603 285.801 241.147 285.651C244.487 284.753 246.985 281.223 246.985 277.012V8.86358C246.989 7.54697 246.737 6.24219 246.243 5.02152ZM244.495 277.012C244.495 280.277 242.243 282.935 239.477 282.935H115.341C113.049 282.935 111.106 281.109 110.514 278.622C110.387 278.095 110.323 277.554 110.323 277.012V8.86358C110.323 5.59806 112.575 2.94428 115.341 2.94428H239.477C239.986 2.94387 240.491 3.0348 240.968 3.21273C243.007 3.96091 244.495 6.2098 244.495 8.86358V277.012Z" fill="#CCCCCC"/>
<path d="M245.739 81.5077H109.078V84H245.739V81.5077Z" fill="#CCCCCC"/>
<path d="M245.739 30.0596H109.078V32.5519H245.739V30.0596Z" fill="#CCCCCC"/>
<path d="M245.739 123.046H109.078V125.538H245.739V123.046Z" fill="#CCCCCC"/>
<path d="M153.426 1.11847H150.934V158.354H153.426V1.11847Z" fill="#CCCCCC"/>
<path d="M203.884 1.11847H201.392V158.354H203.884V1.11847Z" fill="#CCCCCC"/>
<path d="M261.315 270.299H97.6546C94.6815 270.303 91.8312 271.485 89.7289 273.587C87.6266 275.69 86.4439 278.54 86.4404 281.513C86.439 282.943 86.7137 284.359 87.2494 285.685C88.082 287.764 89.518 289.547 91.3725 290.802C93.227 292.058 95.415 292.73 97.6546 292.731H261.315C263.273 292.731 265.197 292.217 266.894 291.243C268.592 290.268 270.006 288.866 270.994 287.176C271.275 286.699 271.519 286.2 271.724 285.685C272.26 284.359 272.535 282.943 272.533 281.513C272.529 278.54 271.346 275.689 269.243 273.587C267.14 271.485 264.289 270.302 261.315 270.299Z" fill="#CCCCCC"/>
<path d="M245.74 152.538H109.909V160.846H245.74V152.538Z" fill="#CCCCCC"/>
<path d="M176.578 150.046H179.07C180.282 150.046 181.444 150.527 182.301 151.384C183.158 152.241 183.64 153.403 183.64 154.615H172.009C172.009 154.015 172.127 153.421 172.357 152.867C172.586 152.312 172.923 151.808 173.347 151.384C173.771 150.96 174.275 150.623 174.829 150.394C175.384 150.164 175.978 150.046 176.578 150.046Z" fill="#CCCCCC"/>
<path d="M180.22 175.968C194.437 175.968 205.962 164.443 205.962 150.226C205.962 136.009 194.437 124.484 180.22 124.484C166.004 124.484 154.479 136.009 154.479 150.226C154.479 164.443 166.004 175.968 180.22 175.968Z" fill="#FFB8B8"/>
<path d="M151.505 125.462C151.699 122.506 153.654 119.481 159.865 117.9C159.865 117.9 170.524 104.27 185.009 111.418C185.009 111.418 192.031 110.21 197.238 117.496C197.238 117.496 202.401 114.451 204.579 119.848C204.579 119.848 210.634 130.856 208.404 142.084C206.175 153.313 205.034 154.714 205.034 154.714C205.034 154.714 207.876 131.488 191.511 133.099C175.145 134.709 161.97 128.954 158.264 141.555C155.187 152.018 155.574 157.452 155.574 157.452C155.574 157.452 145.283 147.014 148.782 138.795C150.572 134.591 151.205 130.021 151.505 125.462Z" fill="#2F2E41"/>
<path d="M110.219 290.904H252.604C251.652 280.043 251.03 238.526 251.03 235.793C251.03 223.741 241.169 210.589 241.169 210.589L237.639 208.638L208.16 199.441L200.531 189.531C199.732 188.491 198.703 187.649 197.524 187.074C196.345 186.498 195.049 186.204 193.737 186.214L169.638 186.395C167.518 186.411 165.48 187.219 163.923 188.659L149.001 202.503L127.114 212.955L127.077 212.918L126.848 213.088L123.6 215.427L121.51 216.937C121.51 216.937 116.029 223.513 111.649 243.236C110.99 246.203 110.527 284.605 110.219 290.904Z" fill="#6C63FF"/>
<path d="M285.559 285.685C285.216 285.998 284.869 286.308 284.523 286.617C283.21 287.784 281.879 288.931 280.53 290.058C278.491 291.758 276.409 293.407 274.285 295.005H82.6076C78.7043 292.075 74.9451 288.968 71.3301 285.685H285.559Z" fill="#CCCCCC"/>
<path d="M215.299 287.922H144.838L146.329 280.839H213.808L215.299 287.922Z" fill="#2F2E41"/>
<path d="M279.047 257.351H260.712C260.298 257.35 259.889 257.44 259.513 257.613C259.138 257.787 258.805 258.041 258.538 258.358C258.283 258.309 258.023 258.284 257.763 258.283C257.191 258.283 256.625 258.395 256.097 258.613C255.569 258.831 255.089 259.152 254.685 259.556C254.281 259.959 253.96 260.439 253.741 260.967C253.522 261.495 253.41 262.061 253.41 262.632C253.41 263.204 253.522 263.769 253.741 264.297C253.96 264.825 254.281 265.305 254.685 265.709C255.089 266.113 255.569 266.433 256.097 266.651C256.625 266.869 257.191 266.982 257.763 266.981C258.419 266.981 259.067 266.83 259.657 266.541L259.962 270.299L261.178 285.152C261.235 285.337 261.313 285.516 261.409 285.685C261.655 286.136 262.017 286.513 262.459 286.775C262.9 287.037 263.404 287.176 263.918 287.176H275.84C276.354 287.176 276.859 287.037 277.301 286.775C277.743 286.512 278.106 286.136 278.353 285.685C278.446 285.515 278.523 285.337 278.581 285.152L281.787 261.061C281.919 260.632 281.948 260.178 281.873 259.736C281.797 259.294 281.619 258.876 281.353 258.515C281.086 258.154 280.738 257.861 280.338 257.659C279.938 257.457 279.495 257.351 279.047 257.351ZM257.763 265.74C256.939 265.739 256.15 265.411 255.568 264.828C254.986 264.245 254.659 263.456 254.659 262.632C254.659 261.809 254.986 261.019 255.568 260.436C256.15 259.854 256.939 259.526 257.763 259.525C257.819 259.525 257.871 259.54 257.927 259.543C257.804 260.044 257.82 260.568 257.972 261.061L259.284 265.326C258.822 265.594 258.297 265.737 257.763 265.74Z" fill="#3F3D56"/>
<path d="M237.634 178.528H121.57C120.573 178.529 119.617 178.926 118.912 179.631C118.207 180.336 117.81 181.292 117.809 182.289V260.61C117.81 261.607 118.206 262.563 118.911 263.268C119.617 263.974 120.573 264.37 121.57 264.371H237.634C238.631 264.37 239.588 263.974 240.293 263.268C240.998 262.563 241.395 261.607 241.396 260.61V182.289C241.394 181.292 240.997 180.336 240.292 179.631C239.587 178.926 238.631 178.529 237.634 178.528Z" fill="#3F3D56"/>
<path d="M192.673 241.283H165.521C165.137 241.284 164.769 241.437 164.498 241.709C164.226 241.981 164.074 242.349 164.075 242.733V285.625H194.123V242.733C194.123 242.543 194.086 242.354 194.013 242.178C193.94 242.002 193.834 241.842 193.699 241.708C193.564 241.573 193.404 241.466 193.228 241.393C193.052 241.32 192.864 241.283 192.673 241.283ZM179.189 265.654C178.339 265.65 177.526 265.311 176.926 264.71C176.325 264.11 175.986 263.297 175.982 262.448V257.5C175.983 256.651 176.322 255.836 176.923 255.236C177.524 254.635 178.339 254.298 179.189 254.298C180.038 254.298 180.853 254.635 181.454 255.236C182.056 255.836 182.394 256.651 182.395 257.5V262.448C182.391 263.297 182.052 264.11 181.451 264.71C180.851 265.311 180.038 265.65 179.189 265.654Z" fill="#2F2E41"/>
<path d="M163.982 284.253V288.392C163.982 288.606 164.068 288.812 164.219 288.963C164.371 289.115 164.577 289.2 164.791 289.201H193.408C193.622 289.2 193.827 289.114 193.979 288.962C194.13 288.811 194.216 288.606 194.217 288.392V284.253H163.982Z" fill="#3F3D56"/>
<path d="M235.166 259.791C236.178 259.791 236.999 258.97 236.999 257.958C236.999 256.947 236.178 256.126 235.166 256.126C234.154 256.126 233.334 256.947 233.334 257.958C233.334 258.97 234.154 259.791 235.166 259.791Z" fill="#2F2E41"/>
<path d="M136.222 255.301C136.138 255.301 136.055 255.317 135.977 255.35C135.899 255.382 135.828 255.429 135.769 255.489C135.709 255.548 135.662 255.619 135.63 255.697C135.598 255.774 135.581 255.858 135.581 255.942V259.241C135.581 259.411 135.649 259.574 135.769 259.694C135.89 259.814 136.053 259.881 136.222 259.881C136.392 259.881 136.555 259.814 136.675 259.694C136.795 259.574 136.863 259.411 136.864 259.241V255.942C136.864 255.858 136.847 255.774 136.815 255.697C136.783 255.619 136.735 255.548 136.676 255.489C136.616 255.429 136.545 255.382 136.468 255.35C136.39 255.317 136.307 255.301 136.222 255.301Z" fill="#2F2E41"/>
<path d="M139.704 255.301C139.62 255.301 139.536 255.317 139.458 255.35C139.381 255.382 139.31 255.429 139.25 255.489C139.191 255.548 139.144 255.619 139.111 255.697C139.079 255.774 139.062 255.858 139.063 255.942V259.241C139.063 259.411 139.13 259.575 139.25 259.695C139.371 259.815 139.534 259.883 139.704 259.883C139.874 259.883 140.037 259.815 140.157 259.695C140.277 259.575 140.345 259.411 140.345 259.241V255.942C140.345 255.858 140.328 255.774 140.296 255.697C140.264 255.619 140.217 255.548 140.157 255.489C140.098 255.429 140.027 255.382 139.949 255.35C139.871 255.317 139.788 255.301 139.704 255.301Z" fill="#2F2E41"/>
<path d="M143.186 255.301C143.102 255.301 143.019 255.317 142.941 255.35C142.863 255.382 142.792 255.429 142.733 255.489C142.673 255.548 142.626 255.619 142.594 255.697C142.562 255.774 142.545 255.858 142.545 255.942V259.241C142.545 259.411 142.613 259.574 142.733 259.694C142.854 259.814 143.016 259.881 143.186 259.881C143.356 259.881 143.519 259.814 143.639 259.694C143.759 259.574 143.827 259.411 143.827 259.241V255.942C143.827 255.858 143.811 255.774 143.779 255.697C143.746 255.619 143.699 255.548 143.64 255.489C143.58 255.429 143.509 255.382 143.432 255.35C143.354 255.317 143.27 255.301 143.186 255.301Z" fill="#2F2E41"/>
<path d="M146.669 255.301C146.584 255.301 146.501 255.317 146.423 255.35C146.345 255.382 146.275 255.429 146.215 255.489C146.156 255.548 146.108 255.619 146.076 255.697C146.044 255.774 146.027 255.858 146.027 255.942V259.241C146.028 259.411 146.096 259.574 146.216 259.694C146.336 259.814 146.499 259.881 146.669 259.881C146.838 259.881 147.001 259.814 147.121 259.694C147.242 259.574 147.309 259.411 147.31 259.241V255.942C147.31 255.858 147.293 255.774 147.261 255.697C147.229 255.619 147.182 255.548 147.122 255.489C147.062 255.429 146.992 255.382 146.914 255.35C146.836 255.317 146.753 255.301 146.669 255.301Z" fill="#2F2E41"/>
<path d="M149.447 286.058C154.8 286.058 159.14 281.718 159.14 276.365C159.14 271.011 154.8 266.672 149.447 266.672C144.094 266.672 139.754 271.011 139.754 276.365C139.754 281.718 144.094 286.058 149.447 286.058Z" fill="#FFB8B8"/>
<path d="M217.163 287.922C222.517 287.922 226.856 283.582 226.856 278.229C226.856 272.875 222.517 268.536 217.163 268.536C211.81 268.536 207.47 272.875 207.47 278.229C207.47 283.582 211.81 287.922 217.163 287.922Z" fill="#FFB8B8"/>
<path d="M317.214 161.23C316.256 159.646 315.121 157.954 313.344 157.437C311.285 156.838 309.17 158.028 307.377 159.202C302.013 162.714 296.847 166.52 291.903 170.603L291.909 170.664C295.758 170.399 298.952 180.633 302.801 180.368C305.581 180.176 309.112 169.458 311.57 168.143C312.502 167.643 313.411 166.977 314.468 166.93C315.781 166.872 316.926 167.789 317.825 168.747C323.147 174.414 324.686 183.079 330.656 188.058C326.892 178.774 322.397 169.803 317.214 161.23Z" fill="#3F3D56"/>
<path d="M327.456 174.993C330.264 180.064 333.241 185.033 336.389 189.902V189.906C336.37 190.077 336.344 190.249 336.318 190.42C335.938 189.839 335.561 189.255 335.188 188.668C332.362 184.235 329.677 179.718 327.132 175.116C325.924 172.928 324.746 170.722 323.598 168.499C322.71 166.777 321.842 165.044 320.992 163.302C320.749 162.802 320.515 162.303 320.28 161.8C319.728 160.621 319.184 159.436 318.602 158.273C317.938 156.946 317.129 155.559 315.91 154.668C315.356 154.245 314.692 153.989 313.998 153.929C313.019 153.935 312.061 154.21 311.228 154.724C304.921 158.039 299.035 162.098 293.694 166.814C288.348 171.511 283.568 176.818 279.453 182.625C279.326 182.804 279.028 182.632 279.155 182.45C279.658 181.741 280.165 181.044 280.687 180.351C287.156 171.749 295.087 164.351 304.118 158.496C305.636 157.512 307.183 156.574 308.76 155.682C309.554 155.231 310.352 154.787 311.164 154.369C311.942 153.913 312.815 153.643 313.714 153.579C316.809 153.531 318.412 157.035 319.512 159.391C319.855 160.133 320.204 160.874 320.559 161.613C321.898 164.409 323.288 167.183 324.731 169.934C325.618 171.631 326.527 173.317 327.456 174.993Z" fill="#3F3D56"/>
<path d="M293.39 165.083C293.21 164.883 293.031 164.682 292.85 164.482C291.424 162.904 289.893 161.345 287.934 160.44C287 159.995 285.98 159.759 284.946 159.748C283.878 159.777 282.826 160.006 281.843 160.424C281.376 160.611 280.919 160.823 280.469 161.048C279.955 161.307 279.45 161.583 278.948 161.861C278.004 162.383 277.073 162.928 276.154 163.496C274.325 164.626 272.554 165.842 270.84 167.145C269.952 167.821 269.082 168.518 268.23 169.238C267.437 169.907 266.661 170.593 265.901 171.298C265.738 171.448 265.496 171.205 265.658 171.055C265.859 170.868 266.061 170.683 266.264 170.5C266.836 169.982 267.418 169.475 268.009 168.977C269.086 168.068 270.191 167.194 271.325 166.355C273.087 165.05 274.909 163.833 276.793 162.705C277.734 162.142 278.688 161.602 279.655 161.086C279.947 160.93 280.242 160.778 280.541 160.634C281.219 160.292 281.924 160.005 282.648 159.776C283.674 159.444 284.759 159.338 285.83 159.464C286.864 159.614 287.86 159.959 288.765 160.479C290.689 161.554 292.181 163.217 293.632 164.839C293.779 165.004 293.537 165.248 293.39 165.083Z" fill="#3F3D56"/>
<path d="M279.314 172.674C278.826 172.698 278.342 172.56 277.94 172.28C276.876 171.474 276.904 169.537 278.026 166.359C278.331 165.498 278.81 164.708 279.432 164.039C280.054 163.37 280.807 162.836 281.644 162.47C282.428 162.119 283.277 161.935 284.135 161.93C284.994 161.925 285.845 162.099 286.633 162.44C286.771 162.5 286.906 162.564 287.04 162.632C287.952 163.143 288.808 163.75 289.591 164.442C290.257 165.02 290.968 165.545 291.716 166.012L291.966 166.158L291.729 166.325C285.69 170.577 281.595 172.674 279.314 172.674Z" fill="#3F3D56"/>
<path d="M302.537 147.372C300.551 147.371 298.627 146.682 297.093 145.421C295.559 144.16 294.51 142.406 294.125 140.458C292.464 140.794 290.941 141.614 289.746 142.816C288.551 144.017 287.739 145.545 287.413 147.208C287.086 148.87 287.259 150.592 287.909 152.156C288.56 153.72 289.66 155.056 291.069 155.996C292.479 156.936 294.135 157.437 295.829 157.437C297.523 157.436 299.179 156.934 300.588 155.993C301.997 155.052 303.096 153.715 303.745 152.151C304.395 150.586 304.567 148.864 304.239 147.202C303.679 147.315 303.109 147.372 302.537 147.372Z" fill="#3F3D56"/>
<path opacity="0.74" d="M73.0058 161.166C80.0728 161.166 85.8017 155.437 85.8017 148.37C85.8017 141.303 80.0728 135.574 73.0058 135.574C65.9389 135.574 60.21 141.303 60.21 148.37C60.21 155.437 65.9389 161.166 73.0058 161.166Z" fill="#3F3D56"/>
<path opacity="0.74" d="M85.8017 161.166C92.8687 161.166 98.5976 155.437 98.5976 148.37C98.5976 141.303 92.8687 135.574 85.8017 135.574C78.7348 135.574 73.0059 141.303 73.0059 148.37C73.0059 155.437 78.7348 161.166 85.8017 161.166Z" fill="#6C63FF"/>
<path opacity="0.74" d="M79.5117 150.968C86.5787 150.968 92.3076 145.239 92.3076 138.172C92.3076 131.105 86.5787 125.376 79.5117 125.376C72.4447 125.376 66.7158 131.105 66.7158 138.172C66.7158 145.239 72.4447 150.968 79.5117 150.968Z" fill="#FF6584"/>
<path d="M112.971 134.505L80.1035 144.831L80.327 145.542L113.195 135.216L112.971 134.505Z" fill="#3F3D56"/>
<path d="M113.181 136.233C114.004 136.233 114.672 135.565 114.672 134.741C114.672 133.918 114.004 133.25 113.181 133.25C112.357 133.25 111.689 133.918 111.689 134.741C111.689 135.565 112.357 136.233 113.181 136.233Z" fill="#3F3D56"/>
<path d="M326.554 201.843C328.739 203.383 330.838 204.953 333.238 206.138C333.194 206.321 333.145 206.507 333.1 206.69C332.806 206.552 332.519 206.407 332.232 206.257C329.797 204.982 327.702 203.249 325.417 201.743C324.284 200.96 323.046 200.34 321.741 199.901C320.38 199.492 318.958 199.325 317.539 199.409C311.623 199.7 306.553 203.23 301.054 205.008C298.362 205.881 295.499 206.347 292.691 205.799C289.884 205.251 287.39 203.76 284.911 202.41C282.465 201.075 279.8 199.733 276.944 199.733C274.617 199.737 272.172 200.669 270.927 202.727C270.888 202.788 270.827 202.832 270.756 202.849C270.686 202.867 270.611 202.856 270.549 202.819C270.486 202.782 270.44 202.722 270.421 202.652C270.402 202.582 270.411 202.507 270.446 202.444C270.724 201.975 271.067 201.547 271.463 201.172C273.089 199.633 275.479 199.025 277.675 199.204C280.515 199.435 283.106 200.777 285.563 202.127C288.169 203.558 290.839 205.098 293.851 205.411C296.826 205.724 299.771 204.945 302.53 203.898C307.872 201.866 313.144 198.481 319.087 198.857C321.89 199.036 324.291 200.251 326.554 201.843Z" fill="#3F3D56"/>
<path d="M92.7117 94.0223V94.7791C92.4612 94.7296 92.2065 94.7046 91.9511 94.7046H88.0515V103.078C88.0508 104.318 87.558 105.506 86.6814 106.383C85.8048 107.26 84.6161 107.752 83.3765 107.753H77.6128V109.043C77.6128 109.56 77.7154 110.072 77.9148 110.549H77.1169C76.9502 110.064 76.8658 109.555 76.8671 109.043V107.753H73.6982V107.007H76.8671V98.634C76.8679 97.3943 77.3606 96.2056 78.2372 95.329C79.1138 94.4525 80.3025 93.9597 81.5422 93.959H87.3059V92.6541H88.0515V93.959H91.9511C92.2059 93.9592 92.4603 93.9804 92.7117 94.0223Z" fill="#6C63FF"/>
<path d="M83.376 87.9939H72.9671C71.7274 87.9946 70.5387 88.4874 69.6621 89.364C68.7855 90.2406 68.2927 91.4293 68.292 92.669V103.078C68.2927 104.318 68.7855 105.506 69.6621 106.383C70.5387 107.259 71.7274 107.752 72.9671 107.753H83.376C84.6157 107.752 85.8044 107.259 86.6809 106.383C87.5575 105.506 88.0503 104.318 88.051 103.078V92.6541C88.0466 91.4169 87.5521 90.2319 86.6759 89.3585C85.7997 88.4851 84.6132 87.9944 83.376 87.9939ZM87.3054 103.078C87.304 104.12 86.8896 105.118 86.153 105.855C85.4163 106.591 84.4177 107.006 83.376 107.007H72.9671C71.9253 107.006 70.9267 106.591 70.1901 105.855C69.4535 105.118 69.039 104.12 69.0376 103.078V92.669C69.039 91.6272 69.4535 90.6286 70.1901 89.892C70.9267 89.1554 71.9253 88.7409 72.9671 88.7395H83.376C84.4152 88.7407 85.4117 89.1531 86.1479 89.8865C86.8841 90.6199 87.3003 91.6149 87.3054 92.654V103.078Z" fill="#3F3D56"/>
<path d="M76.8672 107.007V107.753H77.6128V107.007H76.8672ZM76.8672 107.007V107.753H77.6128V107.007H76.8672ZM92.7117 94.0223C92.4604 93.9804 92.206 93.9592 91.9512 93.9589H81.5423C80.3026 93.9596 79.1139 94.4524 78.2373 95.329C77.3607 96.2056 76.8679 97.3943 76.8672 98.634V109.043C76.8658 109.555 76.9503 110.064 77.117 110.549C77.4317 111.473 78.0276 112.275 78.8211 112.844C79.6147 113.412 80.5662 113.718 81.5423 113.718H91.9512C93.1909 113.717 94.3796 113.224 95.2562 112.348C96.1327 111.471 96.6255 110.283 96.6262 109.043V98.634C96.6259 97.5261 96.2322 96.4544 95.5153 95.6098C94.7984 94.7651 93.8048 94.2026 92.7117 94.0223ZM95.8806 109.043C95.8792 110.085 95.4648 111.083 94.7282 111.82C93.9916 112.556 92.9929 112.971 91.9512 112.972H81.5423C80.5006 112.971 79.502 112.556 78.7654 111.82C78.0288 111.083 77.6143 110.085 77.6128 109.043V98.634C77.6142 97.5923 78.0287 96.5936 78.7653 95.857C79.5019 95.1204 80.5005 94.706 81.5423 94.7046H91.9512C92.9932 94.7049 93.9925 95.1191 94.7293 95.8559C95.4661 96.5927 95.8802 97.592 95.8806 98.634V109.043ZM76.8672 107.007V107.753H77.6128V107.007H76.8672Z" fill="#3F3D56"/>
<path d="M69.5037 204.196H25.2882C24.9804 204.196 24.6852 204.318 24.4672 204.535C24.2492 204.753 24.1262 205.047 24.125 205.355V207.976C25.5838 213.563 27.3498 219.066 29.4152 224.458H69.5037C69.656 224.458 69.8068 224.428 69.9475 224.37C70.0883 224.312 70.2162 224.226 70.3239 224.119C70.4316 224.011 70.517 223.883 70.5752 223.742C70.6334 223.602 70.6633 223.451 70.6631 223.299V205.355C70.6628 205.048 70.5405 204.753 70.3231 204.536C70.1058 204.318 69.8111 204.196 69.5037 204.196Z" fill="#6C63FF"/>
<path d="M65.2912 230.278H31.7754C32.1743 231.213 32.5807 232.142 33.002 233.066H65.2912C67.1105 233.092 67.0919 230.252 65.2912 230.278Z" fill="#E4E4E4"/>
<path d="M65.2915 236.668H34.6836C35.1309 237.603 35.5907 238.533 36.063 239.456H65.2915C67.1108 239.482 67.0921 236.645 65.2915 236.668Z" fill="#E4E4E4"/>
<path d="M65.2911 243.061H37.9453C38.4449 243.997 38.9593 244.925 39.4813 245.85H65.2911C67.1104 245.876 67.0917 243.035 65.2911 243.061Z" fill="#E4E4E4"/>
<path d="M294.515 71.208H294.303C294.964 71.2086 295.616 71.3628 296.208 71.6585H295.241C294.199 71.6597 293.2 72.074 292.464 72.8107C291.727 73.5473 291.313 74.546 291.312 75.5878V85.997C291.313 87.0388 291.727 88.0375 292.464 88.7741C293.2 89.5108 294.199 89.9251 295.241 89.9263H295.857C295.362 90.1206 294.835 90.2207 294.303 90.2214H294.515C295.656 90.2201 296.749 89.7664 297.556 88.9599C298.362 88.1534 298.816 87.0599 298.817 85.9193V75.5101C298.816 74.3695 298.362 73.276 297.556 72.4695C296.749 71.663 295.656 71.2093 294.515 71.208Z" fill="#3F3D56"/>
<path opacity="0.21" d="M294.515 71.208H294.303C294.964 71.2086 295.616 71.3628 296.208 71.6585H295.241C294.199 71.6597 293.2 72.074 292.464 72.8107C291.727 73.5473 291.313 74.546 291.312 75.5878V85.997C291.313 87.0388 291.727 88.0375 292.464 88.7741C293.2 89.5108 294.199 89.9251 295.241 89.9263H295.857C295.362 90.1206 294.835 90.2207 294.303 90.2214H294.515C295.656 90.2201 296.749 89.7664 297.556 88.9599C298.362 88.1534 298.816 87.0599 298.817 85.9193V75.5101C298.816 74.3695 298.362 73.276 297.556 72.4695C296.749 71.663 295.656 71.2093 294.515 71.208Z" fill="black"/>
<path d="M266.927 71.208H266.714C267.376 71.2086 268.028 71.3628 268.619 71.6585H267.652C266.611 71.6597 265.612 72.074 264.875 72.8107C264.139 73.5473 263.724 74.546 263.723 75.5878V85.997C263.724 87.0388 264.139 88.0375 264.875 88.7741C265.612 89.5108 266.611 89.9251 267.652 89.9263H268.269C267.773 90.1206 267.246 90.2207 266.714 90.2214H266.927C268.067 90.2201 269.161 89.7664 269.967 88.9599C270.774 88.1534 271.228 87.0599 271.229 85.9193V75.5101C271.228 74.3695 270.774 73.276 269.967 72.4695C269.161 71.663 268.067 71.2093 266.927 71.208Z" fill="#6C63FF"/>
<path opacity="0.21" d="M266.927 71.208H266.714C267.376 71.2086 268.028 71.3628 268.619 71.6585H267.652C266.611 71.6597 265.612 72.074 264.875 72.8107C264.139 73.5473 263.724 74.546 263.723 75.5878V85.997C263.724 87.0388 264.139 88.0375 264.875 88.7741C265.612 89.5108 266.611 89.9251 267.652 89.9263H268.269C267.773 90.1206 267.246 90.2207 266.714 90.2214H266.927C268.067 90.2201 269.161 89.7664 269.967 88.9599C270.774 88.1534 271.228 87.0599 271.229 85.9193V75.5101C271.228 74.3695 270.774 73.276 269.967 72.4695C269.161 71.663 268.067 71.2093 266.927 71.208Z" fill="black"/>
<path d="M267.694 89.9587C266.653 89.9575 265.654 89.5432 264.917 88.8065C264.181 88.0699 263.766 87.0712 263.765 86.0294V75.6202C263.766 74.5784 264.181 73.5797 264.917 72.8431C265.654 72.1064 266.653 71.6921 267.694 71.6909H268.661C268.07 71.3952 267.418 71.241 266.756 71.2404H256.347C255.206 71.2417 254.113 71.6954 253.306 72.5019C252.5 73.3084 252.046 74.4019 252.045 75.5425V85.9518C252.046 87.0923 252.5 88.1858 253.306 88.9923C254.113 89.7988 255.206 90.2525 256.347 90.2538H266.756C267.288 90.2531 267.815 90.153 268.311 89.9587L267.694 89.9587Z" fill="#6C63FF"/>
<path d="M295.282 89.9587C294.24 89.9575 293.242 89.5432 292.505 88.8065C291.768 88.0699 291.354 87.0712 291.353 86.0294V75.6202C291.354 74.5784 291.768 73.5797 292.505 72.8431C293.242 72.1064 294.24 71.6921 295.282 71.6909H296.249C295.657 71.3952 295.005 71.241 294.344 71.2404H283.935C282.794 71.2417 281.701 71.6954 280.894 72.5019C280.088 73.3084 279.634 74.4019 279.633 75.5425V85.9518C279.634 87.0923 280.088 88.1858 280.894 88.9923C281.701 89.7988 282.794 90.2525 283.935 90.2538H294.344C294.876 90.2531 295.403 90.153 295.899 89.9587L295.282 89.9587Z" fill="#3F3D56"/>
<path d="M307.574 73.8308C311.394 79.0863 314.889 84.5707 318.039 90.2532H311.522C310.381 90.2515 309.288 89.7977 308.482 88.9912C307.675 88.1848 307.221 87.0914 307.22 85.9509V75.542C307.219 74.9534 307.34 74.3709 307.574 73.8308Z" fill="#FF6584"/>
<path d="M294.507 95.7148L290.861 90.2531L288.196 86.2603C288.04 86.0271 287.822 85.8427 287.566 85.7286C287.309 85.6144 287.026 85.5752 286.749 85.6154C286.471 85.6556 286.211 85.7735 285.998 85.9557C285.785 86.1378 285.628 86.3765 285.545 86.6443L284.423 90.2531L282.163 97.5043C282.074 97.7932 282.075 98.1025 282.166 98.3908C282.257 98.6791 282.434 98.9327 282.673 99.1179C282.912 99.303 283.202 99.4109 283.504 99.427C283.806 99.4431 284.106 99.3667 284.363 99.2081L285.165 98.7122C285.326 98.6128 285.51 98.5562 285.699 98.5477C285.889 98.5393 286.077 98.5794 286.246 98.6642C286.416 98.7489 286.561 98.8756 286.668 99.0321C286.775 99.1886 286.84 99.3698 286.857 99.5585L287.592 107.574C287.626 107.942 287.796 108.284 288.069 108.534C288.342 108.783 288.698 108.922 289.068 108.924C289.113 108.924 289.157 108.92 289.206 108.916L290.332 108.815C290.526 108.798 290.715 108.742 290.887 108.651C291.06 108.561 291.213 108.437 291.338 108.287C291.462 108.137 291.556 107.964 291.614 107.777C291.672 107.591 291.692 107.395 291.674 107.201L290.917 98.9248C290.899 98.7303 290.933 98.5346 291.014 98.3573C291.096 98.18 291.223 98.0273 291.383 97.9147C291.542 97.8021 291.729 97.7334 291.923 97.7157C292.117 97.698 292.313 97.7318 292.49 97.8138L292.654 97.8883C292.948 98.0236 293.278 98.0591 293.594 97.9896C293.91 97.9201 294.194 97.7493 294.404 97.5032C294.614 97.2571 294.737 96.9492 294.756 96.6264C294.775 96.3036 294.687 95.9835 294.507 95.7148Z" fill="#CCCCCC"/>
</g>
<defs>
<clipPath id="clip0_9_240">
<rect width="336.463" height="327" fill="white"/>
</clipPath>
</defs>
</svg>
